<svg width="100" height="28" viewBox="0 0 100 28" fill="none" xmlns="http://www.w3.org/2000/svg">
<g filter="url(#filter0_d_101:12)">
<path d="M11.6375 6.2125C11.5375 6.3875 11.4292 6.51667 11.3125 6.6C11.2042 6.675 11.0667 6.7125 10.9 6.7125C10.725 6.7125 10.5333 6.65 10.325 6.525C10.125 6.39167 9.88333 6.24583 9.6 6.0875C9.31667 5.92917 8.98333 5.7875 8.6 5.6625C8.225 5.52917 7.77917 5.4625 7.2625 5.4625C6.79583 5.4625 6.3875 5.52083 6.0375 5.6375C5.6875 5.74583 5.39167 5.9 5.15 6.1C4.91667 6.3 4.74167 6.54167 4.625 6.825C4.50833 7.1 4.45 7.40417 4.45 7.7375C4.45 8.1625 4.56667 8.51667 4.8 8.8C5.04167 9.08333 5.35833 9.325 5.75 9.525C6.14167 9.725 6.5875 9.90417 7.0875 10.0625C7.5875 10.2208 8.1 10.3917 8.625 10.575C9.15 10.75 9.6625 10.9583 10.1625 11.2C10.6625 11.4333 11.1083 11.7333 11.5 12.1C11.8917 12.4583 12.2042 12.9 12.4375 13.425C12.6792 13.95 12.8 14.5875 12.8 15.3375C12.8 16.1542 12.6583 16.9208 12.375 17.6375C12.1 18.3458 11.6917 18.9667 11.15 19.5C10.6167 20.025 9.9625 20.4417 9.1875 20.75C8.4125 21.05 7.525 21.2 6.525 21.2C5.95 21.2 5.38333 21.1417 4.825 21.025C4.26667 20.9167 3.72917 20.7583 3.2125 20.55C2.70417 20.3417 2.225 20.0917 1.775 19.8C1.325 19.5083 0.925 19.1833 0.575 18.825L1.5625 17.2125C1.64583 17.0958 1.75417 17 1.8875 16.925C2.02083 16.8417 2.1625 16.8 2.3125 16.8C2.52083 16.8 2.74583 16.8875 2.9875 17.0625C3.22917 17.2292 3.51667 17.4167 3.85 17.625C4.18333 17.8333 4.57083 18.025 5.0125 18.2C5.4625 18.3667 6 18.45 6.625 18.45C7.58333 18.45 8.325 18.225 8.85 17.775C9.375 17.3167 9.6375 16.6625 9.6375 15.8125C9.6375 15.3375 9.51667 14.95 9.275 14.65C9.04167 14.35 8.72917 14.1 8.3375 13.9C7.94583 13.6917 7.5 13.5167 7 13.375C6.5 13.2333 5.99167 13.0792 5.475 12.9125C4.95833 12.7458 4.45 12.5458 3.95 12.3125C3.45 12.0792 3.00417 11.775 2.6125 11.4C2.22083 11.025 1.90417 10.5583 1.6625 10C1.42917 9.43333 1.3125 8.7375 1.3125 7.9125C1.3125 7.25417 1.44167 6.6125 1.7 5.9875C1.96667 5.3625 2.35 4.80833 2.85 4.325C3.35 3.84167 3.96667 3.45417 4.7 3.1625C5.43333 2.87083 6.275 2.725 7.225 2.725C8.29167 2.725 9.275 2.89167 10.175 3.225C11.075 3.55833 11.8417 4.025 12.475 4.625L11.6375 6.2125ZM28.0998 15.525C27.2081 15.5667 26.4581 15.6458 25.8498 15.7625C25.2415 15.8708 24.754 16.0125 24.3873 16.1875C24.0206 16.3625 23.7581 16.5667 23.5998 16.8C23.4415 17.0333 23.3623 17.2875 23.3623 17.5625C23.3623 18.1042 23.5206 18.4917 23.8373 18.725C24.1623 18.9583 24.5831 19.075 25.0998 19.075C25.7331 19.075 26.279 18.9625 26.7373 18.7375C27.204 18.5042 27.6581 18.1542 28.0998 17.6875V15.525ZM21.0248 9.9625C22.4998 8.6125 24.2748 7.9375 26.3498 7.9375C27.0998 7.9375 27.7706 8.0625 28.3623 8.3125C28.954 8.55417 29.454 8.89583 29.8623 9.3375C30.2706 9.77083 30.579 10.2917 30.7873 10.9C31.004 11.5083 31.1123 12.175 31.1123 12.9V21H29.7123C29.4206 21 29.1956 20.9583 29.0373 20.875C28.879 20.7833 28.754 20.6042 28.6623 20.3375L28.3873 19.4125C28.0623 19.7042 27.7456 19.9625 27.4373 20.1875C27.129 20.4042 26.8081 20.5875 26.4748 20.7375C26.1415 20.8875 25.7831 21 25.3998 21.075C25.0248 21.1583 24.6081 21.2 24.1498 21.2C23.6081 21.2 23.1081 21.1292 22.6498 20.9875C22.1915 20.8375 21.7956 20.6167 21.4623 20.325C21.129 20.0333 20.8706 19.6708 20.6873 19.2375C20.504 18.8042 20.4123 18.3 20.4123 17.725C20.4123 17.4 20.4665 17.0792 20.5748 16.7625C20.6831 16.4375 20.8581 16.1292 21.0998 15.8375C21.3498 15.5458 21.6706 15.2708 22.0623 15.0125C22.454 14.7542 22.9331 14.5292 23.4998 14.3375C24.0748 14.1458 24.7415 13.9917 25.4998 13.875C26.2581 13.75 27.1248 13.675 28.0998 13.65V12.9C28.0998 12.0417 27.9165 11.4083 27.5498 11C27.1831 10.5833 26.654 10.375 25.9623 10.375C25.4623 10.375 25.0456 10.4333 24.7123 10.55C24.3873 10.6667 24.0998 10.8 23.8498 10.95C23.5998 11.0917 23.3706 11.2208 23.1623 11.3375C22.9623 11.4542 22.7373 11.5125 22.4873 11.5125C22.2706 11.5125 22.0873 11.4583 21.9373 11.35C21.7873 11.2333 21.6665 11.1 21.5748 10.95L21.0248 9.9625ZM55.4867 11.9375V19.25C54.5701 19.925 53.5909 20.4208 52.5492 20.7375C51.5159 21.0458 50.4076 21.2 49.2242 21.2C47.7492 21.2 46.4117 20.9708 45.2117 20.5125C44.0201 20.0542 42.9992 19.4167 42.1492 18.6C41.3076 17.7833 40.6576 16.8083 40.1992 15.675C39.7409 14.5417 39.5117 13.3042 39.5117 11.9625C39.5117 10.6042 39.7326 9.35833 40.1742 8.225C40.6159 7.09167 41.2409 6.11667 42.0492 5.3C42.8659 4.48333 43.8534 3.85 45.0117 3.4C46.1701 2.95 47.4701 2.725 48.9117 2.725C49.6451 2.725 50.3284 2.78333 50.9617 2.9C51.6034 3.01667 52.1951 3.17917 52.7367 3.3875C53.2867 3.5875 53.7867 3.83333 54.2367 4.125C54.6867 4.41667 55.0992 4.7375 55.4742 5.0875L54.5117 6.6125C54.3617 6.85417 54.1659 7.00417 53.9242 7.0625C53.6826 7.1125 53.4201 7.05 53.1367 6.875C52.8617 6.71667 52.5867 6.55833 52.3117 6.4C52.0367 6.24167 51.7284 6.10417 51.3867 5.9875C51.0534 5.87083 50.6742 5.775 50.2492 5.7C49.8326 5.625 49.3492 5.5875 48.7992 5.5875C47.9076 5.5875 47.0992 5.7375 46.3742 6.0375C45.6576 6.3375 45.0451 6.76667 44.5367 7.325C44.0284 7.88333 43.6367 8.55417 43.3617 9.3375C43.0867 10.1208 42.9492 10.9958 42.9492 11.9625C42.9492 12.9958 43.0951 13.9208 43.3867 14.7375C43.6867 15.5458 44.1034 16.2333 44.6367 16.8C45.1784 17.3583 45.8284 17.7875 46.5867 18.0875C47.3451 18.3792 48.1909 18.525 49.1242 18.525C49.7909 18.525 50.3867 18.4542 50.9117 18.3125C51.4367 18.1708 51.9492 17.9792 52.4492 17.7375V14.4625H50.1742C49.9576 14.4625 49.7867 14.4042 49.6617 14.2875C49.5451 14.1625 49.4867 14.0125 49.4867 13.8375V11.9375H55.4867ZM71.093 15.525C70.2013 15.5667 69.4513 15.6458 68.843 15.7625C68.2346 15.8708 67.7471 16.0125 67.3805 16.1875C67.0138 16.3625 66.7513 16.5667 66.593 16.8C66.4346 17.0333 66.3555 17.2875 66.3555 17.5625C66.3555 18.1042 66.5138 18.4917 66.8305 18.725C67.1555 18.9583 67.5763 19.075 68.093 19.075C68.7263 19.075 69.2721 18.9625 69.7305 18.7375C70.1971 18.5042 70.6513 18.1542 71.093 17.6875V15.525ZM64.018 9.9625C65.493 8.6125 67.268 7.9375 69.343 7.9375C70.093 7.9375 70.7638 8.0625 71.3555 8.3125C71.9471 8.55417 72.4471 8.89583 72.8555 9.3375C73.2638 9.77083 73.5721 10.2917 73.7805 10.9C73.9971 11.5083 74.1055 12.175 74.1055 12.9V21H72.7055C72.4138 21 72.1888 20.9583 72.0305 20.875C71.8721 20.7833 71.7471 20.6042 71.6555 20.3375L71.3805 19.4125C71.0555 19.7042 70.7388 19.9625 70.4305 20.1875C70.1221 20.4042 69.8013 20.5875 69.468 20.7375C69.1346 20.8875 68.7763 21 68.393 21.075C68.018 21.1583 67.6013 21.2 67.143 21.2C66.6013 21.2 66.1013 21.1292 65.643 20.9875C65.1846 20.8375 64.7888 20.6167 64.4555 20.325C64.1221 20.0333 63.8638 19.6708 63.6805 19.2375C63.4971 18.8042 63.4055 18.3 63.4055 17.725C63.4055 17.4 63.4596 17.0792 63.568 16.7625C63.6763 16.4375 63.8513 16.1292 64.093 15.8375C64.343 15.5458 64.6638 15.2708 65.0555 15.0125C65.4471 14.7542 65.9263 14.5292 66.493 14.3375C67.068 14.1458 67.7346 13.9917 68.493 13.875C69.2513 13.75 70.118 13.675 71.093 13.65V12.9C71.093 12.0417 70.9096 11.4083 70.543 11C70.1763 10.5833 69.6471 10.375 68.9555 10.375C68.4555 10.375 68.0388 10.4333 67.7055 10.55C67.3805 10.6667 67.093 10.8 66.843 10.95C66.593 11.0917 66.3638 11.2208 66.1555 11.3375C65.9555 11.4542 65.7305 11.5125 65.4805 11.5125C65.2638 11.5125 65.0805 11.4583 64.9305 11.35C64.7805 11.2333 64.6596 11.1 64.568 10.95L64.018 9.9625ZM86.0049 10.4C86.4049 9.63333 86.8799 9.03333 87.4299 8.6C87.9799 8.15833 88.6299 7.9375 89.3799 7.9375C89.9715 7.9375 90.4465 8.06667 90.8049 8.325L90.6049 10.6375C90.5632 10.7875 90.5007 10.8958 90.4174 10.9625C90.3424 11.0208 90.2382 11.05 90.1049 11.05C89.9799 11.05 89.7924 11.0292 89.5424 10.9875C89.3007 10.9458 89.0632 10.925 88.8299 10.925C88.4882 10.925 88.184 10.975 87.9174 11.075C87.6507 11.175 87.409 11.3208 87.1924 11.5125C86.984 11.6958 86.7965 11.9208 86.6299 12.1875C86.4715 12.4542 86.3215 12.7583 86.1799 13.1V21H83.0924V8.175H84.9049C85.2215 8.175 85.4424 8.23333 85.5674 8.35C85.6924 8.45833 85.7757 8.65833 85.8174 8.95L86.0049 10.4Z" fill="#004C93"/>
</g>
<defs>
<filter id="filter0_d_101:12" x="0.575012" y="0.724998" width="99.2299" height="26.475" filterUnits="userSpaceOnUse" color-interpolation-filters="sRGB">
<feFlood flood-opacity="0" result="BackgroundImageFix"/>
<feColorMatrix in="SourceAlpha" type="matrix" values="0 0 0 0 0 0 0 0 0 0 0 0 0 0 0 0 0 0 127 0" result="hardAlpha"/>
<feOffset dx="5" dy="2"/>
<feGaussianBlur stdDeviation="2"/>
<feComposite in2="hardAlpha" operator="out"/>
<feColorMatrix type="matrix" values="0 0 0 0 0 0 0 0 0 0 0 0 0 0 0 0 0 0 0.3 0"/>
<feBlend mode="normal" in2="BackgroundImageFix" result="effect1_dropShadow_101:12"/>
<feBlend mode="normal" in="SourceGraphic" in2="effect1_dropShadow_101:12" result="shape"/>
</filter>
</defs>
</svg>
